<svg xmlns="http://www.w3.org/2000/svg" width="67" height="67" viewBox="0 0 67 67">
  <g id="Group_76" data-name="Group 76" transform="translate(-157 -403)">
    <rect id="Rectangle_284" data-name="Rectangle 284" width="67" height="67" rx="9" transform="translate(157 403)" fill="#f2f1f2"/>
    <g id="Group_71" data-name="Group 71" transform="translate(-2.582 -7.675)">
      <line id="Line_35" data-name="Line 35" transform="translate(184.247 437.825)" fill="none" stroke="#2b2b2b" stroke-linecap="round" stroke-linejoin="round" stroke-width="1.9"/>
      <line id="Line_36" data-name="Line 36" transform="translate(192.939 437.825)" fill="none" stroke="#2b2b2b" stroke-linecap="round" stroke-linejoin="round" stroke-width="1.9"/>
      <line id="Line_37" data-name="Line 37" transform="translate(201.632 437.825)" fill="none" stroke="#2b2b2b" stroke-linecap="round" stroke-linejoin="round" stroke-width="1.9"/>
      <line id="Line_38" data-name="Line 38" transform="translate(188.593 432.757)" fill="none" stroke="#2b2b2b" stroke-linecap="round" stroke-linejoin="round" stroke-width="1.9"/>
      <line id="Line_39" data-name="Line 39" transform="translate(197.286 432.757)" fill="none" stroke="#2b2b2b" stroke-linecap="round" stroke-linejoin="round" stroke-width="1.9"/>
      <path id="Path_94" data-name="Path 94" d="M46.1,56.9a1.6,1.6,0,0,0,1.534-2.046,23.088,23.088,0,0,0-44.341,0A1.6,1.6,0,0,0,4.832,56.9Z" transform="translate(167.472 389.464)" fill="none" stroke="#2b2b2b" stroke-linecap="round" stroke-linejoin="round" stroke-width="1.9"/>
      <path id="Path_95" data-name="Path 95" d="M2.826,163.447v1.6a5.756,5.756,0,0,0,5.747,5.765H41.793a5.756,5.756,0,0,0,5.747-5.765v-1.595Z" transform="translate(167.756 289.224)" fill="none" stroke="#2b2b2b" stroke-linecap="round" stroke-linejoin="round" stroke-width="1.9"/>
    </g>
  </g>
</svg>
