<svg xmlns="http://www.w3.org/2000/svg" width="67" height="67" viewBox="0 0 67 67">
  <g id="Group_77" data-name="Group 77" transform="translate(-817 -403)">
    <rect id="Rectangle_285" data-name="Rectangle 285" width="67" height="67" rx="9" transform="translate(817 403)" fill="#fff"/>
    <g id="Group_59" data-name="Group 59" transform="translate(827.674 422.674)">
      <g id="Group_60" data-name="Group 60" transform="translate(0.326 0.326)">
        <path id="Path_83" data-name="Path 83" d="M8.841,61.778l3.353,12.016a2.136,2.136,0,0,0,2.054,1.567H44.993a2.135,2.135,0,0,0,2.054-1.567L50.4,61.778" transform="translate(-7.191 -47.361)" fill="none" stroke="#2b2b2b" stroke-linecap="round" stroke-linejoin="round" stroke-width="1.8"/>
        <path id="Path_84" data-name="Path 84" d="M66.884,61.778l.689,3.212a2.6,2.6,0,0,0,2.533,2.059h7.117a2.6,2.6,0,0,0,2.533-2.059l.689-3.212" transform="translate(-51.236 -47.361)" fill="none" stroke="#2b2b2b" stroke-linecap="round" stroke-linejoin="round" stroke-width="1.8"/>
        <path id="Path_85" data-name="Path 85" d="M52.6,12.373,50.353,4.378A3.257,3.257,0,0,0,47.219,2H18.462a3.257,3.257,0,0,0-3.135,2.378l-2.243,7.995" transform="translate(-10.412 -2)" fill="none" stroke="#2b2b2b" stroke-linecap="round" stroke-linejoin="round" stroke-width="1.8"/>
        <path id="Path_86" data-name="Path 86" d="M45.4,45.011H3.456A1.462,1.462,0,0,0,2,46.478v1.11a1.462,1.462,0,0,0,1.456,1.467H45.4a1.462,1.462,0,0,0,1.457-1.467v-1.11A1.462,1.462,0,0,0,45.4,45.011Z" transform="translate(-2 -34.638)" fill="none" stroke="#2b2b2b" stroke-linecap="round" stroke-linejoin="round" stroke-width="1.8"/>
      </g>
    </g>
  </g>
</svg>
