<svg xmlns="http://www.w3.org/2000/svg" width="67" height="67" viewBox="0 0 67 67">
  <g id="Group_91" data-name="Group 91" transform="translate(-1477 -403)">
    <rect id="Rectangle_287" data-name="Rectangle 287" width="67" height="67" rx="9" transform="translate(1477 403)" fill="#f2f1f2"/>
    <g id="Group_62" data-name="Group 62" transform="translate(1489.355 414.356)">
      <g id="Group_63" data-name="Group 63" transform="translate(0.644 0.644)">
        <path id="Path_87" data-name="Path 87" d="M7.659,23.465v6a10.271,10.271,0,0,1-1.5,5.351L3.686,38.86A11.515,11.515,0,0,0,2,44.86V58.523A2.679,2.679,0,0,0,4.679,61.2h15.25a2.679,2.679,0,0,0,2.679-2.679V44.862a11.522,11.522,0,0,0-1.687-6l-2.469-4.045a10.275,10.275,0,0,1-1.5-5.352v-6" transform="translate(-2 -18.223)" fill="none" stroke="#2b2b2b" stroke-linecap="round" stroke-linejoin="round" stroke-width="1.8"/>
        <path id="Path_88" data-name="Path 88" d="M16.885,97.828l1.728,9.2h9.7l1.728-9.2a6.71,6.71,0,0,0-6.5-7.97h-.16A6.71,6.71,0,0,0,16.885,97.828Z" transform="translate(-13.161 -68.403)" fill="none" stroke="#2b2b2b" stroke-linecap="round" stroke-linejoin="round" stroke-width="1.8"/>
        <line id="Line_34" data-name="Line 34" x1="10.483" transform="translate(5.063 14.69)" fill="none" stroke="#2b2b2b" stroke-linecap="round" stroke-linejoin="round" stroke-width="1.8"/>
        <path id="Path_89" data-name="Path 89" d="M29.949,2H22.086a1.942,1.942,0,0,0-1.942,1.942v3.3H31.89v-3.3A1.942,1.942,0,0,0,29.949,2Z" transform="translate(-15.713 -2)" fill="none" stroke="#2b2b2b" stroke-linecap="round" stroke-linejoin="round" stroke-width="1.8"/>
        <path id="Path_90" data-name="Path 90" d="M101.019,68.75a2.979,2.979,0,0,0-2.965,3.259l1.6,21.757a1.836,1.836,0,0,0,1.827,1.663H112.15a1.835,1.835,0,0,0,1.827-1.663l1.6-21.757a2.979,2.979,0,0,0-2.965-3.259Z" transform="translate(-74.587 -52.45)" fill="none" stroke="#2b2b2b" stroke-linecap="round" stroke-linejoin="round" stroke-width="1.8"/>
        <path id="Path_91" data-name="Path 91" d="M115.532,50.91h-3.672a1.941,1.941,0,0,0-1.941,1.941v2.417" transform="translate(-83.565 -38.966)" fill="none" stroke="#2b2b2b" stroke-linecap="round" stroke-linejoin="round" stroke-width="1.8"/>
        <path id="Path_92" data-name="Path 92" d="M147.555,55.269V52.851a1.941,1.941,0,0,0-1.941-1.941h-1.44" transform="translate(-109.456 -38.966)" fill="none" stroke="#2b2b2b" stroke-linecap="round" stroke-linejoin="round" stroke-width="1.8"/>
        <path id="Path_93" data-name="Path 93" d="M127.493,24.21V22.38a1.232,1.232,0,0,0-1.232-1.232h-.084l-.617-4.553a1.168,1.168,0,0,0-2.314,0l-.617,4.553h-.084a1.232,1.232,0,0,0-1.232,1.232v1.83" transform="translate(-92.176 -12.266)" fill="none" stroke="#2b2b2b" stroke-linecap="round" stroke-linejoin="round" stroke-width="1.8"/>
      </g>
    </g>
  </g>
</svg>
