<svg xmlns="http://www.w3.org/2000/svg" width="67" height="67" viewBox="0 0 67 67">
  <g id="Group_73" data-name="Group 73" transform="translate(-1147 -403)">
    <rect id="Rectangle_286" data-name="Rectangle 286" width="67" height="67" rx="9" transform="translate(1147 403)" fill="#f2f1f2"/>
    <g id="Group_56" data-name="Group 56" transform="translate(1160 413)">
      <g id="Group_57" data-name="Group 57" transform="translate(2 2)">
        <path id="Path_78" data-name="Path 78" d="M17.327,53.042H2l1.019-2.875V27.146L2,24.272H32.115l-1.021,2.875V42.178" transform="translate(-2.003 -18.959)" fill="none" stroke="#2b2b2b" stroke-linecap="round" stroke-linejoin="round" stroke-width="1.8"/>
        <ellipse id="Ellipse_8" data-name="Ellipse 8" cx="6.947" cy="6.902" rx="6.947" ry="6.902" transform="translate(8.109 12.796)" fill="none" stroke="#2b2b2b" stroke-linecap="round" stroke-linejoin="round" stroke-width="1.8"/>
        <path id="Path_79" data-name="Path 79" d="M2,7.313V2.137L4.154,3.227,6.3,2,8.456,3.227,10.607,2l2.15,1.227L14.908,2l2.15,1.227L19.209,2,21.36,3.227,23.511,2l2.15,1.227L27.811,2l2.151,1.227,2.149-1.091V7.313" transform="translate(-2 -2)" fill="none" stroke="#2b2b2b" stroke-linecap="round" stroke-linejoin="round" stroke-width="1.8"/>
        <path id="Path_80" data-name="Path 80" d="M2,144.872v5.177l2.152-1.226,2.152,1.226,2.152-1.226,2.152,1.226,2.149-1.226,2.149,1.226,2.152-1.226,1.548.883" transform="translate(-2.003 -110.789)" fill="none" stroke="#2b2b2b" stroke-linecap="round" stroke-linejoin="round" stroke-width="1.8"/>
        <path id="Path_81" data-name="Path 81" d="M102.6,102.753l8.507-8.5a2.213,2.213,0,0,1,3.533.537,9.308,9.308,0,0,1-1.715,10.8l-.043.043" transform="translate(-78.604 -71.745)" fill="none" stroke="#2b2b2b" stroke-linecap="round" stroke-linejoin="round" stroke-width="1.8"/>
        <path id="Path_82" data-name="Path 82" d="M77.023,135.506a2.213,2.213,0,0,0-2.8,2.222,9.307,9.307,0,0,0,17.082,4.637,2.213,2.213,0,0,0-1.291-3.332Z" transform="translate(-56.993 -103.598)" fill="none" stroke="#2b2b2b" stroke-linecap="round" stroke-linejoin="round" stroke-width="1.8"/>
        <line id="Line_28" data-name="Line 28" y2="0.012" transform="translate(29.634 38.663)" fill="none" stroke="#2b2b2b" stroke-linecap="round" stroke-linejoin="round" stroke-width="1.8"/>
        <line id="Line_29" data-name="Line 29" y2="0.012" transform="translate(27.494 36.522)" fill="none" stroke="#2b2b2b" stroke-linecap="round" stroke-linejoin="round" stroke-width="1.8"/>
        <line id="Line_30" data-name="Line 30" y2="0.012" transform="translate(25.817 39.14)" fill="none" stroke="#2b2b2b" stroke-linecap="round" stroke-linejoin="round" stroke-width="1.8"/>
        <line id="Line_31" data-name="Line 31" x2="0.009" y2="0.005" transform="translate(34.451 26.904)" fill="none" stroke="#2b2b2b" stroke-linecap="round" stroke-linejoin="round" stroke-width="1.8"/>
        <line id="Line_32" data-name="Line 32" x2="0.009" y2="0.005" transform="translate(31.425 26.938)" fill="none" stroke="#2b2b2b" stroke-linecap="round" stroke-linejoin="round" stroke-width="1.8"/>
        <line id="Line_33" data-name="Line 33" x2="0.009" y2="0.005" transform="translate(32.15 28.716)" fill="none" stroke="#2b2b2b" stroke-linecap="round" stroke-linejoin="round" stroke-width="1.8"/>
      </g>
    </g>
  </g>
</svg>
